{
	"asset":{
		"generator":"Khronos glTF Blender I/O v3.5.30",
		"version":"2.0"
	},
	"scene":0,
	"scenes":[
		{
			"name":"Scene",
			"nodes":[
				7
			]
		}
	],
	"nodes":[
		{
			"mesh":0,
			"name":"defaultMaterial.003"
		},
		{
			"children":[
				0
			],
			"name":"Arcade.003"
		},
		{
			"mesh":1,
			"name":"defaultMaterial.004"
		},
		{
			"children":[
				2
			],
			"name":"Arcade.004"
		},
		{
			"mesh":2,
			"name":"defaultMaterial.005"
		},
		{
			"children":[
				4
			],
			"name":"Arcade.005"
		},
		{
			"children":[
				1,
				3,
				5
			],
			"name":"Collada visual scene group.001",
			"rotation":[
				0.70710688829422,
				0,
				0,
				0.7071066498756409
			]
		},
		{
			"children":[
				6
			],
			"name":"Sketchfab_model.001",
			"rotation":[
				0,
				-0.7071068286895752,
				-0.7071068286895752,
				6.664483009899413e-08
			],
			"scale":[
				0.9331763386726379,
				0.9331762194633484,
				0.9331762194633484
			],
			"translation":[
				1.258554458618164,
				0,
				0.14112406969070435
			]
		}
	],
	"materials":[
		{
			"alphaCutoff":0.5,
			"alphaMode":"MASK",
			"emissiveFactor":[
				1,
				1,
				1
			],
			"emissiveTexture":{
				"index":0
			},
			"name":"material",
			"normalTexture":{
				"index":1
			},
			"occlusionTexture":{
				"index":2
			},
			"pbrMetallicRoughness":{
				"baseColorTexture":{
					"index":3
				},
				"metallicRoughnessTexture":{
					"index":2
				}
			}
		},
		{
			"alphaCutoff":0.5,
			"alphaMode":"MASK",
			"name":"material.001",
			"normalTexture":{
				"index":4
			},
			"occlusionTexture":{
				"index":5
			},
			"pbrMetallicRoughness":{
				"baseColorTexture":{
					"index":6
				},
				"metallicRoughnessTexture":{
					"index":5
				}
			}
		},
		{
			"alphaCutoff":0.5,
			"alphaMode":"MASK",
			"emissiveFactor":[
				1,
				1,
				1
			],
			"emissiveTexture":{
				"index":7
			},
			"name":"Frame",
			"normalTexture":{
				"index":8
			},
			"occlusionTexture":{
				"index":9
			},
			"pbrMetallicRoughness":{
				"baseColorTexture":{
					"index":10
				},
				"metallicRoughnessTexture":{
					"index":9
				}
			}
		},
		{
			"alphaCutoff":0.5,
			"alphaMode":"MASK",
			"name":"Screen",
			"normalTexture":{
				"index":11
			},
			"occlusionTexture":{
				"index":12
			},
			"pbrMetallicRoughness":{
				"baseColorTexture":{
					"index":13
				},
				"metallicRoughnessTexture":{
					"index":12
				}
			}
		}
	],
	"meshes":[
		{
			"name":"defaultMaterial.003",
			"primitives":[
				{
					"attributes":{
						"POSITION":0,
						"TEXCOORD_0":1,
						"TEXCOORD_1":2,
						"NORMAL":3
					},
					"indices":4,
					"material":0
				},
				{
					"attributes":{
						"POSITION":5,
						"TEXCOORD_0":6,
						"TEXCOORD_1":7,
						"NORMAL":8
					},
					"indices":9,
					"material":1
				}
			]
		},
		{
			"name":"defaultMaterial.004",
			"primitives":[
				{
					"attributes":{
						"POSITION":10,
						"TEXCOORD_0":11,
						"TEXCOORD_1":12,
						"NORMAL":13
					},
					"indices":14,
					"material":2
				}
			]
		},
		{
			"name":"defaultMaterial.005",
			"primitives":[
				{
					"attributes":{
						"POSITION":15,
						"TEXCOORD_0":16,
						"TEXCOORD_1":17,
						"NORMAL":18
					},
					"indices":19,
					"material":3
				}
			]
		}
	],
	"textures":[
		{
			"sampler":0,
			"source":0
		},
		{
			"sampler":0,
			"source":1
		},
		{
			"sampler":0,
			"source":2
		},
		{
			"sampler":0,
			"source":3
		},
		{
			"sampler":0,
			"source":1
		},
		{
			"sampler":0,
			"source":2
		},
		{
			"sampler":0,
			"source":3
		},
		{
			"sampler":0,
			"source":0
		},
		{
			"sampler":0,
			"source":4
		},
		{
			"sampler":0,
			"source":5
		},
		{
			"sampler":0,
			"source":6
		},
		{
			"sampler":0,
			"source":7
		},
		{
			"sampler":0,
			"source":8
		},
		{
			"sampler":0,
			"source":9
		}
	],
	"images":[
		{
			"bufferView":5,
			"mimeType":"image/png",
			"name":"Frame_emissive"
		},
		{
			"bufferView":6,
			"mimeType":"image/jpeg",
			"name":"material_normal"
		},
		{
			"bufferView":7,
			"mimeType":"image/png",
			"name":"material_metallicRoughness"
		},
		{
			"bufferView":8,
			"mimeType":"image/png",
			"name":"material_baseColor"
		},
		{
			"bufferView":19,
			"mimeType":"image/jpeg",
			"name":"Frame_normal"
		},
		{
			"bufferView":20,
			"mimeType":"image/png",
			"name":"Frame_metallicRoughness"
		},
		{
			"bufferView":21,
			"mimeType":"image/png",
			"name":"Frame_baseColor"
		},
		{
			"bufferView":27,
			"mimeType":"image/jpeg",
			"name":"Screen_normal"
		},
		{
			"bufferView":28,
			"mimeType":"image/png",
			"name":"Screen_metallicRoughness"
		},
		{
			"bufferView":29,
			"mimeType":"image/png",
			"name":"Screen_baseColor"
		}
	],
	"accessors":[
		{
			"bufferView":0,
			"componentType":5126,
			"count":180,
			"max":[
				0.34891200065612793,
				0.9961190223693848,
				0.3946940004825592
			],
			"min":[
				-0.34891200065612793,
				-0.9954429864883423,
				-0.39452600479125977
			],
			"type":"VEC3"
		},
		{
			"bufferView":1,
			"componentType":5126,
			"count":180,
			"type":"VEC2"
		},
		{
			"bufferView":2,
			"componentType":5126,
			"count":180,
			"type":"VEC2"
		},
		{
			"bufferView":3,
			"componentType":5126,
			"count":180,
			"type":"VEC3"
		},
		{
			"bufferView":4,
			"componentType":5123,
			"count":312,
			"type":"SCALAR"
		},
		{
			"bufferView":9,
			"componentType":5126,
			"count":17,
			"max":[
				-0.34891098737716675,
				0.9961190223693848,
				0.3946940004825592
			],
			"min":[
				-0.34891200065612793,
				-0.29701900482177734,
				-0.37090200185775757
			],
			"type":"VEC3"
		},
		{
			"bufferView":10,
			"componentType":5126,
			"count":17,
			"type":"VEC2"
		},
		{
			"bufferView":11,
			"componentType":5126,
			"count":17,
			"type":"VEC2"
		},
		{
			"bufferView":12,
			"componentType":5126,
			"count":17,
			"type":"VEC3"
		},
		{
			"bufferView":13,
			"componentType":5123,
			"count":42,
			"type":"SCALAR"
		},
		{
			"bufferView":14,
			"componentType":5126,
			"count":755,
			"max":[
				0.34891200065612793,
				1,
				0.39909300208091736
			],
			"min":[
				-0.34891200065612793,
				-1,
				-0.39909300208091736
			],
			"type":"VEC3"
		},
		{
			"bufferView":15,
			"componentType":5126,
			"count":755,
			"type":"VEC2"
		},
		{
			"bufferView":16,
			"componentType":5126,
			"count":755,
			"type":"VEC2"
		},
		{
			"bufferView":17,
			"componentType":5126,
			"count":755,
			"type":"VEC3"
		},
		{
			"bufferView":18,
			"componentType":5123,
			"count":2172,
			"type":"SCALAR"
		},
		{
			"bufferView":22,
			"componentType":5126,
			"count":798,
			"max":[
				0.3117380142211914,
				0.5766689777374268,
				-0.021542800590395927
			],
			"min":[
				-0.3117380142211914,
				0.02914080023765564,
				-0.31008899211883545
			],
			"type":"VEC3"
		},
		{
			"bufferView":23,
			"componentType":5126,
			"count":798,
			"type":"VEC2"
		},
		{
			"bufferView":24,
			"componentType":5126,
			"count":798,
			"type":"VEC2"
		},
		{
			"bufferView":25,
			"componentType":5126,
			"count":798,
			"type":"VEC3"
		},
		{
			"bufferView":26,
			"componentType":5123,
			"count":3840,
			"type":"SCALAR"
		}
	],
	"bufferViews":[
		{
			"buffer":0,
			"byteLength":2160,
			"byteOffset":0,
			"target":34962
		},
		{
			"buffer":0,
			"byteLength":1440,
			"byteOffset":2160,
			"target":34962
		},
		{
			"buffer":0,
			"byteLength":1440,
			"byteOffset":3600,
			"target":34962
		},
		{
			"buffer":0,
			"byteLength":2160,
			"byteOffset":5040,
			"target":34962
		},
		{
			"buffer":0,
			"byteLength":624,
			"byteOffset":7200,
			"target":34963
		},
		{
			"buffer":0,
			"byteLength":97748,
			"byteOffset":7824
		},
		{
			"buffer":0,
			"byteLength":55304,
			"byteOffset":105572
		},
		{
			"buffer":0,
			"byteLength":33720,
			"byteOffset":160876
		},
		{
			"buffer":0,
			"byteLength":315444,
			"byteOffset":194596
		},
		{
			"buffer":0,
			"byteLength":204,
			"byteOffset":510040,
			"target":34962
		},
		{
			"buffer":0,
			"byteLength":136,
			"byteOffset":510244,
			"target":34962
		},
		{
			"buffer":0,
			"byteLength":136,
			"byteOffset":510380,
			"target":34962
		},
		{
			"buffer":0,
			"byteLength":204,
			"byteOffset":510516,
			"target":34962
		},
		{
			"buffer":0,
			"byteLength":84,
			"byteOffset":510720,
			"target":34963
		},
		{
			"buffer":0,
			"byteLength":9060,
			"byteOffset":510804,
			"target":34962
		},
		{
			"buffer":0,
			"byteLength":6040,
			"byteOffset":519864,
			"target":34962
		},
		{
			"buffer":0,
			"byteLength":6040,
			"byteOffset":525904,
			"target":34962
		},
		{
			"buffer":0,
			"byteLength":9060,
			"byteOffset":531944,
			"target":34962
		},
		{
			"buffer":0,
			"byteLength":4344,
			"byteOffset":541004,
			"target":34963
		},
		{
			"buffer":0,
			"byteLength":75082,
			"byteOffset":545348
		},
		{
			"buffer":0,
			"byteLength":135323,
			"byteOffset":620432
		},
		{
			"buffer":0,
			"byteLength":179752,
			"byteOffset":755756
		},
		{
			"buffer":0,
			"byteLength":9576,
			"byteOffset":935508,
			"target":34962
		},
		{
			"buffer":0,
			"byteLength":6384,
			"byteOffset":945084,
			"target":34962
		},
		{
			"buffer":0,
			"byteLength":6384,
			"byteOffset":951468,
			"target":34962
		},
		{
			"buffer":0,
			"byteLength":9576,
			"byteOffset":957852,
			"target":34962
		},
		{
			"buffer":0,
			"byteLength":7680,
			"byteOffset":967428,
			"target":34963
		},
		{
			"buffer":0,
			"byteLength":6462,
			"byteOffset":975108
		},
		{
			"buffer":0,
			"byteLength":269317,
			"byteOffset":981572
		},
		{
			"buffer":0,
			"byteLength":50625,
			"byteOffset":1250892
		}
	],
	"samplers":[
		{
			"magFilter":9729,
			"minFilter":9987
		}
	],
	"buffers":[
		{
			"byteLength":1301520,
			"uri":"data:application/octet-stream;base64,"
		}
	]
}
