{
	"asset":{
		"generator":"Khronos glTF Blender I/O v3.5.30",
		"version":"2.0"
	},
	"scene":0,
	"scenes":[
		{
			"name":"Scene",
			"nodes":[
				0,
				1
			]
		}
	],
	"nodes":[
		{
			"mesh":0,
			"name":"Text.001",
			"rotation":[
				0.7071068286895752,
				0,
				0,
				0.7071068286895752
			],
			"translation":[
				0,
				0.837711751461029,
				0
			]
		},
		{
			"mesh":1,
			"name":"Text.002",
			"rotation":[
				0.7071068286895752,
				0,
				0,
				0.7071068286895752
			],
			"translation":[
				31.127973556518555,
				-2.5929784774780273,
				-2.2713279724121094
			]
		}
	],
	"materials":[
		{
			"doubleSided":true,
			"emissiveFactor":[
				1,
				0.44209906458854675,
				0
			],
			"name":"Material.001",
			"pbrMetallicRoughness":{
				"baseColorFactor":[
					0,
					0,
					0,
					1
				]
			}
		}
	],
	"meshes":[
		{
			"name":"Curve.001",
			"primitives":[
				{
					"attributes":{
						"POSITION":0,
						"TEXCOORD_0":1,
						"NORMAL":2
					},
					"indices":3,
					"material":0
				}
			]
		},
		{
			"name":"Curve.002",
			"primitives":[
				{
					"attributes":{
						"POSITION":4,
						"TEXCOORD_0":5,
						"NORMAL":6
					},
					"indices":7,
					"material":0
				}
			]
		}
	],
	"accessors":[
		{
			"bufferView":0,
			"componentType":5126,
			"count":24523,
			"max":[
				3.0941073894500732,
				0.004999999888241291,
				0.9074572920799255
			],
			"min":[
				-3.126049041748047,
				0,
				-0.5832147002220154
			],
			"type":"VEC3"
		},
		{
			"bufferView":1,
			"componentType":5126,
			"count":24523,
			"type":"VEC2"
		},
		{
			"bufferView":2,
			"componentType":5126,
			"count":24523,
			"type":"VEC3"
		},
		{
			"bufferView":3,
			"componentType":5123,
			"count":109539,
			"type":"SCALAR"
		},
		{
			"bufferView":4,
			"componentType":5126,
			"count":28586,
			"max":[
				3.099107265472412,
				0.009999999776482582,
				0.9124575853347778
			],
			"min":[
				-3.1310503482818604,
				-0.009999999776482582,
				-0.5882148146629333
			],
			"type":"VEC3"
		},
		{
			"bufferView":5,
			"componentType":5126,
			"count":28586,
			"type":"VEC2"
		},
		{
			"bufferView":6,
			"componentType":5126,
			"count":28586,
			"type":"VEC3"
		},
		{
			"bufferView":7,
			"componentType":5123,
			"count":121566,
			"type":"SCALAR"
		}
	],
	"bufferViews":[
		{
			"buffer":0,
			"byteLength":294276,
			"byteOffset":0,
			"target":34962
		},
		{
			"buffer":0,
			"byteLength":196184,
			"byteOffset":294276,
			"target":34962
		},
		{
			"buffer":0,
			"byteLength":294276,
			"byteOffset":490460,
			"target":34962
		},
		{
			"buffer":0,
			"byteLength":219078,
			"byteOffset":784736,
			"target":34963
		},
		{
			"buffer":0,
			"byteLength":343032,
			"byteOffset":1003816,
			"target":34962
		},
		{
			"buffer":0,
			"byteLength":228688,
			"byteOffset":1346848,
			"target":34962
		},
		{
			"buffer":0,
			"byteLength":343032,
			"byteOffset":1575536,
			"target":34962
		},
		{
			"buffer":0,
			"byteLength":243132,
			"byteOffset":1918568,
			"target":34963
		}
	],
	"buffers":[
		{
			"byteLength":2161700,
			"uri":"data:application/octet-stream;base64,"
		}
	]
}
